<svg width="281" height="29" viewBox="0 0 281 29" fill="none" xmlns="http://www.w3.org/2000/svg">
<path d="M152.989 0C143.029 0 137.87 6.12671 137.87 14.3774C137.87 22.6607 143.029 28.8203 152.989 28.8203C162.981 28.8203 168.141 22.6607 168.141 14.3774C168.156 6.12671 162.981 0 152.989 0V0ZM239.328 0C230.903 0 226.675 3.34932 226.675 9.28038C226.675 14.0998 229.484 16.3702 235.296 16.9906L241.761 17.6782C244.227 17.9557 245.354 18.9025 245.354 20.1441C245.354 21.5491 243.705 22.808 239.738 22.808C235.15 22.808 233.304 21.647 232.994 19.3107H226.284C226.594 25.6173 230.692 28.8366 239.492 28.8366C247.525 28.8366 252.014 25.3066 252.014 19.9967C252.014 15.3734 249.355 12.5963 244.326 12.0245L237.958 11.3058C234.235 10.8975 233.305 9.96562 233.305 8.70731C233.305 7.3023 235.215 6.04502 238.953 6.04502C242.546 6.04502 244.423 7.38556 244.766 9.39499H251.608C251.265 3.59471 246.415 0 239.328 0ZM83.0748 0.653296V18.397C83.0748 26.304 90.1274 28.7711 96.0375 28.7711C101.916 28.7711 108.936 26.304 108.936 18.397V0.653296H101.948V17.5964H101.981C101.981 21.1584 99.7944 22.5951 96.0556 22.5951C92.4307 22.5951 90.063 21.093 90.063 17.5964V0.653296H83.0748ZM24.442 0.751533L0 15.9443V28.149H0.211237L24.7188 12.8907H37.4376C37.8299 12.8907 38.1891 13.2004 38.1891 13.6422C38.1891 14.001 38.0259 14.1488 37.8305 14.2628L25.7961 21.4834C25.0123 21.957 24.7352 22.8881 24.7352 23.5906L24.7176 28.149H40.0168V1.69954C40.0168 1.1932 39.6253 0.751531 39.0377 0.751531L24.442 0.751533ZM62.6655 0.751533L52.1653 28.1506H59.3826L61.2115 23.0192H72.9348L74.731 28.1506H82.1923L71.5627 0.751533L62.6655 0.751533ZM112.137 0.751533V6.68194H120.971V28.1506H127.943V6.68194H136.743V0.751533L112.137 0.751533ZM171.944 0.751533V28.1506H184.746C194.56 28.1506 197.269 24.4897 197.269 14.2464C197.269 4.62341 194.674 0.751533 184.746 0.751533H171.944ZM201.172 0.751533V28.1506H223.214V22.2185H208.16V17.2525H220.275V11.3058H208.16V6.68194H223.214V0.751533L201.172 0.751533ZM255.574 0.751533L255.607 28.1506H262.564V17.7437L272.001 28.1506H280.835L268.098 14.623L280.835 0.751533H272.524L262.564 11.8772V0.751533L255.574 0.751533ZM152.989 6.15964C158.197 6.15964 160.99 9.345 160.99 14.3774C161.006 19.5238 158.197 22.6606 152.989 22.6606C147.829 22.6606 144.989 19.507 144.989 14.3774C144.989 9.345 147.829 6.15964 152.989 6.15964V6.15964ZM67.1223 6.45436L70.8931 17.187H63.2844L67.1223 6.45436ZM178.917 6.68194H184.468C188.844 6.68194 190.15 7.87439 190.15 14.2464C190.15 20.0626 188.681 22.2186 184.468 22.2186H178.917V6.68194Z" fill="white"/>
</svg>
