<svg width="245" height="40" viewBox="0 0 245 40" fill="none" xmlns="http://www.w3.org/2000/svg">
<path d="M16.3067 0L0 32.0081H7.57503L23.8877 0H16.3067Z" fill="white"/>
<path d="M110.157 12.8105L108.851 15.3695H108.773C108.233 14.3478 107.397 13.5124 106.376 12.9723C105.343 12.4977 104.215 12.266 103.079 12.2951C101.854 12.2694 100.639 12.5365 99.5376 13.0742C98.5315 13.5728 97.6491 14.2893 96.9547 15.1717C96.2429 16.0786 95.7082 17.1114 95.3785 18.2161C95.016 19.3801 94.8341 20.5927 94.8392 21.8118C94.831 23.0644 94.982 24.3129 95.2886 25.5274C95.5683 26.6416 96.0675 27.6889 96.7569 28.6078C97.433 29.494 98.3101 30.2068 99.3159 30.6873C100.48 31.2213 101.751 31.4817 103.031 31.4484C104.178 31.454 105.312 31.2064 106.352 30.7233C107.387 30.2608 108.242 29.4712 108.785 28.4759H108.857V31.0049C108.857 34.0014 107.454 35.7154 104.662 35.7154C101.869 35.7154 100.383 34.5168 99.5915 33.5339L97.6858 37.3035C97.6858 37.3035 99.8433 39.2452 103.924 39.2452C110.69 39.2452 113.867 35.9551 113.867 30.7772V12.7985L110.157 12.8105ZM108.575 24.1551C108.398 24.7639 108.114 25.3363 107.736 25.845C107.361 26.3444 106.88 26.7538 106.328 27.0436C105.718 27.349 105.043 27.5012 104.362 27.4871C103.645 27.514 102.935 27.3329 102.318 26.9657C101.781 26.6289 101.329 26.1713 101 25.6293C100.656 25.0661 100.418 24.4445 100.299 23.7955C100.16 23.117 100.09 22.4264 100.089 21.7339C100.087 21.0393 100.17 20.3471 100.335 19.6724C100.483 19.0474 100.747 18.4558 101.114 17.9284C101.463 17.4332 101.92 17.0234 102.45 16.7298C103.038 16.4182 103.697 16.2653 104.362 16.2864C105.108 16.2572 105.85 16.4224 106.513 16.7658C107.065 17.0753 107.532 17.5158 107.874 18.0483C108.233 18.6235 108.484 19.2591 108.617 19.9241C108.769 20.6613 108.844 21.4126 108.839 22.1654C108.846 22.8378 108.758 23.5079 108.575 24.1551V24.1551Z" fill="white"/>
<path d="M39.8818 5.50093V15.4851H39.9956C40.5896 14.4407 41.4802 13.596 42.5546 13.058C43.4951 12.5732 44.5351 12.3127 45.593 12.2969C46.7798 12.2651 47.9612 12.4688 49.0689 12.8962C49.9062 13.2336 50.6414 13.783 51.2024 14.4903C51.744 15.2292 52.1164 16.0783 52.2931 16.9773C52.5129 18.0459 52.6194 19.1346 52.6107 20.2255V32.0315H47.3489V21.1664C47.4311 19.9399 47.174 18.7146 46.6058 17.6246C46.1144 16.8395 45.2334 16.426 43.9749 16.426C42.5366 16.426 41.4999 16.8575 40.8526 17.7085C40.2054 18.5595 39.8878 19.9678 39.8878 21.9035V32.0075H34.614V5.50093H39.8818Z" fill="white"/>
<path d="M54.819 17.8248C55.2508 16.6295 55.9333 15.5404 56.8207 14.6306C57.7076 13.742 58.7686 13.0463 59.937 12.587C62.5812 11.6262 65.4791 11.6262 68.1233 12.587C69.3094 13.0342 70.3838 13.7344 71.2718 14.6389C72.1598 15.5435 72.84 16.6306 73.2652 17.8248C73.7523 19.1689 73.9919 20.5902 73.9724 22.0198C73.9904 23.4376 73.7508 24.8468 73.2652 26.1789C72.8258 27.3634 72.1441 28.4432 71.2636 29.3491C70.3706 30.2272 69.2998 30.9036 68.1233 31.3328C65.4728 32.2691 62.5815 32.2691 59.931 31.3328C58.7601 30.8866 57.6978 30.196 56.8147 29.3072C55.9302 28.4043 55.2479 27.3237 54.813 26.1369C54.3246 24.8056 54.0849 23.3958 54.1059 21.9779C54.0904 20.5618 54.332 19.1546 54.819 17.8248V17.8248ZM59.6134 24.2432C59.7459 24.941 60.0037 25.609 60.3745 26.2148C60.7256 26.7907 61.2161 27.2689 61.8008 27.6052C62.484 27.9749 63.2538 28.1549 64.0301 28.1266C64.81 28.1525 65.583 27.9727 66.2715 27.6052C66.8657 27.2732 67.365 26.7945 67.7218 26.2148C68.0903 25.6079 68.348 24.9403 68.4829 24.2432C68.6328 23.5056 68.7071 22.7546 68.7046 22.0018C68.7062 21.2412 68.632 20.4824 68.4829 19.7365C68.3509 19.0386 68.093 18.3705 67.7218 17.7649C67.3577 17.1827 66.858 16.6974 66.2655 16.3505C65.5792 15.9762 64.8054 15.7921 64.0241 15.8172C63.298 15.7785 62.5748 15.9368 61.9313 16.2755C61.2878 16.6141 60.7478 17.1205 60.3685 17.7409C59.9948 18.3453 59.7367 19.0139 59.6074 19.7126C59.4563 20.4582 59.38 21.2171 59.3796 21.9779C59.3774 22.7388 59.4538 23.4979 59.6074 24.2432H59.6134Z" fill="white"/>
<path d="M88.3534 32.0107V29.3678H88.2456C87.6416 30.412 86.7345 31.248 85.6447 31.765C84.623 32.2467 83.5081 32.4983 82.3785 32.5021C81.1974 32.5397 80.0199 32.3526 78.9086 31.9507C78.0669 31.627 77.3293 31.0801 76.7752 30.3686C76.2281 29.6321 75.8533 28.7822 75.6785 27.8816C75.4586 26.813 75.3522 25.7243 75.3608 24.6334V12.8154H80.6346V23.6566C80.5525 24.8849 80.8096 26.1122 81.3777 27.2044C81.8691 27.9834 82.7481 28.383 84.0146 28.403C85.4489 28.403 86.4877 27.9755 87.1309 27.1205C87.7721 26.2695 88.0957 24.8611 88.0957 22.9254V12.8154H93.3635V31.9927L88.3534 32.0107Z" fill="white"/>
<path d="M121.105 5.50093V15.4851H121.213C121.81 14.4411 122.703 13.5968 123.778 13.058C124.718 12.5732 125.758 12.3127 126.816 12.2969C128.003 12.2652 129.185 12.4688 130.292 12.8962C131.133 13.2242 131.875 13.7653 132.444 14.4663C132.985 15.2062 133.359 16.0548 133.54 16.9534C133.758 18.0221 133.863 19.1109 133.852 20.2015V32.0075H128.584V21.1664C128.664 19.9401 128.407 18.7155 127.841 17.6246C127.346 16.8255 126.467 16.426 125.204 16.426C123.766 16.426 122.729 16.8575 122.088 17.7085C121.447 18.5595 121.123 19.9678 121.123 21.9035V32.0075H115.849V5.50093H121.105Z" fill="white"/>
<path d="M174.07 18.255C174.497 17.0658 175.176 15.9825 176.059 15.0787C176.942 14.1749 178.009 13.4719 179.188 13.0172C181.832 12.0565 184.73 12.0565 187.375 13.0172C188.559 13.4669 189.632 14.168 190.52 15.0722C191.408 15.9764 192.089 17.0623 192.516 18.255C193.004 19.5992 193.243 21.0205 193.224 22.4501C193.242 23.8678 193.002 25.277 192.516 26.6091C192.078 27.7954 191.394 28.8756 190.509 29.7794C189.621 30.6579 188.554 31.3345 187.381 31.763C184.73 32.6994 181.839 32.6994 179.188 31.763C178.017 31.3183 176.954 30.6276 176.072 29.7374C175.187 28.8337 174.503 27.7534 174.064 26.5672C173.581 25.2347 173.343 23.8255 173.363 22.4081C173.349 20.9926 173.588 19.586 174.07 18.255V18.255ZM178.865 24.6734C178.999 25.3706 179.257 26.0382 179.626 26.6451C179.981 27.22 180.473 27.6977 181.058 28.0355C181.741 28.4052 182.511 28.5852 183.287 28.5568C184.067 28.5827 184.84 28.4029 185.529 28.0355C186.122 27.7018 186.621 27.2235 186.979 26.6451C187.347 26.0382 187.605 25.3706 187.74 24.6734C187.89 23.9358 187.964 23.1848 187.962 22.4321C187.963 21.6715 187.889 20.9126 187.74 20.1668C187.608 19.4688 187.35 18.8007 186.979 18.1951C186.613 17.6143 186.114 17.1293 185.523 16.7808C184.836 16.4065 184.063 16.2223 183.281 16.2474C182.504 16.2198 181.733 16.4041 181.052 16.7808C180.473 17.1271 179.983 17.6031 179.62 18.1711C179.248 18.7768 178.991 19.4449 178.859 20.1428C178.712 20.8891 178.638 21.6477 178.637 22.4081C178.636 23.1687 178.71 23.9275 178.859 24.6734H178.865Z" fill="white"/>
<path d="M214.985 5.50093V19.7221L221.625 12.8123H227.864L220.624 19.8659L228.685 32.0075H222.296L217.029 23.4317L214.985 25.3974V31.9896H209.711V5.50093H214.985Z" fill="white"/>
<path d="M232.575 27.2372C232.8 27.6332 233.109 27.9749 233.48 28.238C233.869 28.5118 234.303 28.7147 234.763 28.8373C235.254 28.9631 235.76 29.0255 236.267 29.023C236.66 29.0218 237.052 28.9776 237.436 28.8912C237.826 28.8127 238.202 28.6753 238.55 28.4837C238.881 28.3025 239.166 28.0483 239.383 27.7406C239.624 27.3887 239.742 26.9675 239.719 26.542C239.719 25.7509 239.191 25.1576 238.143 24.7441C236.707 24.24 235.237 23.8395 233.744 23.5455C232.977 23.3717 232.228 23.168 231.497 22.9462C230.799 22.7404 230.135 22.4357 229.525 22.0413C228.964 21.6677 228.495 21.1719 228.153 20.591C227.788 19.9406 227.607 19.2029 227.631 18.4576C227.586 17.3952 227.837 16.3412 228.356 15.4132C228.823 14.6348 229.481 13.989 230.268 13.5374C231.106 13.0677 232.018 12.7454 232.965 12.5845C233.967 12.3985 234.984 12.3062 236.003 12.3088C237.019 12.3053 238.033 12.4037 239.03 12.6025C239.955 12.7801 240.842 13.121 241.649 13.6093C242.419 14.0806 243.072 14.7198 243.56 15.4791C244.104 16.3734 244.417 17.3885 244.471 18.4336H239.461C239.472 18.0184 239.37 17.6081 239.168 17.2454C238.965 16.8828 238.669 16.5812 238.311 16.372C237.549 15.9972 236.708 15.8121 235.859 15.8327C235.537 15.8339 235.215 15.8519 234.895 15.8866C234.568 15.9207 234.249 16.0035 233.948 16.1323C233.665 16.2492 233.416 16.4346 233.223 16.6717C233.014 16.9394 232.91 17.2737 232.929 17.6126C232.921 17.831 232.963 18.0484 233.053 18.2479C233.142 18.4474 233.276 18.6237 233.444 18.7632C233.844 19.0908 234.304 19.3372 234.799 19.4883C235.426 19.6928 236.064 19.8609 236.71 19.9917C237.43 20.1436 238.161 20.3054 238.904 20.4772C239.662 20.6452 240.41 20.8553 241.145 21.1064C241.84 21.3351 242.496 21.6664 243.093 22.0893C243.659 22.4893 244.129 23.009 244.471 23.6115C244.839 24.3018 245.019 25.0769 244.993 25.8588C245.043 26.8969 244.814 27.9296 244.33 28.8495C243.846 29.7695 243.125 30.5432 242.242 31.0906C241.386 31.6278 240.436 31.9998 239.443 32.1873C238.385 32.3962 237.309 32.5006 236.231 32.4989C235.134 32.5018 234.039 32.3913 232.965 32.1693C231.958 31.9677 230.996 31.5861 230.124 31.0427C229.223 30.4913 228.481 29.7153 227.971 28.7908C227.46 27.8663 227.199 26.825 227.212 25.7689H232.222C232.206 26.2812 232.328 26.7884 232.575 27.2372V27.2372Z" fill="white"/>
<path d="M144.984 28.0723C144.35 28.1494 143.711 27.9917 143.186 27.6288C142.823 27.104 142.665 26.4643 142.742 25.8309V16.3442H145.685L147.483 12.8143H142.748V7.06114H137.475V12.8143H134.838L133.04 16.3382H137.469V27.6648C137.434 28.472 137.601 29.2752 137.954 30.002C138.255 30.5765 138.712 31.0544 139.272 31.3804C139.87 31.7131 140.525 31.9325 141.202 32.0276C141.97 32.1431 142.745 32.1992 143.521 32.1954C144.043 32.1954 144.57 32.1954 145.116 32.1594C145.613 32.1384 146.11 32.0884 146.602 32.0096V27.9224C146.345 27.9768 146.085 28.0148 145.823 28.0363C145.565 28.0603 145.283 28.0723 144.984 28.0723Z" fill="white"/>
<path d="M31.3218 28.0723C30.6884 28.1489 30.049 27.9911 29.5239 27.6288C29.161 27.104 29.0033 26.4643 29.0804 25.8309V16.3442H31.7952L33.5931 12.8143H29.0924V7.06114H23.8247V12.8143H21.1818L19.3839 16.3382H23.8187V27.6648C23.7826 28.4715 23.9473 29.2746 24.2981 30.002C24.6007 30.5752 25.0573 31.0526 25.6165 31.3804C26.2203 31.7143 26.8807 31.9337 27.5642 32.0276C28.3318 32.1431 29.1072 32.1992 29.8835 32.1954C30.4049 32.1954 30.9382 32.1954 31.4776 32.1594C31.9735 32.1382 32.4677 32.0882 32.9578 32.0096V27.9224C32.7008 27.9768 32.4406 28.0148 32.1788 28.0363C31.9031 28.0603 31.6154 28.0723 31.3218 28.0723Z" fill="white"/>
<path d="M205.601 12.2967C201.173 12.2967 199.477 16.3779 199.477 16.3779H199.405V12.8121H194.395V31.9894H199.662V23.9709C199.662 19.2965 200.573 17.2109 204.558 17.2109C205.276 17.2006 205.984 17.3695 206.62 17.7023L208.879 13.2676C207.906 12.6287 206.766 12.291 205.601 12.2967V12.2967Z" fill="white"/>
<path d="M168.939 12.8154L165.41 25.802H165.338L162.072 12.8154H156.948L153.753 25.844H153.682L150.158 12.8154L146.724 19.5454L150.679 32.0047H156.133L159.399 19.1199H159.471L162.887 32.0047H168.31L174.357 12.8154H168.939Z" fill="white"/>
</svg>
